<svg width="1920" height="1280" viewBox="0 0 1920 1280" fill="none" xmlns="http://www.w3.org/2000/svg">
  <defs>
    <linearGradient id="bg" x1="190" y1="72" x2="1684" y2="1246" gradientUnits="userSpaceOnUse">
      <stop offset="0" stop-color="#EAF7FF"/>
      <stop offset="0.52" stop-color="#E2F1FF"/>
      <stop offset="1" stop-color="#D9EAFB"/>
    </linearGradient>
    <radialGradient id="glowA" cx="0" cy="0" r="1" gradientUnits="userSpaceOnUse" gradientTransform="translate(338 226) rotate(22.2) scale(550 364)">
      <stop stop-color="#4BC6D1" stop-opacity="0.35"/>
      <stop offset="1" stop-color="#4BC6D1" stop-opacity="0"/>
    </radialGradient>
    <radialGradient id="glowB" cx="0" cy="0" r="1" gradientUnits="userSpaceOnUse" gradientTransform="translate(1520 244) rotate(152) scale(470 360)">
      <stop stop-color="#F4A261" stop-opacity="0.3"/>
      <stop offset="1" stop-color="#F4A261" stop-opacity="0"/>
    </radialGradient>
    <radialGradient id="glowC" cx="0" cy="0" r="1" gradientUnits="userSpaceOnUse" gradientTransform="translate(982 896) rotate(90) scale(430 820)">
      <stop stop-color="#3AA7C7" stop-opacity="0.2"/>
      <stop offset="1" stop-color="#3AA7C7" stop-opacity="0"/>
    </radialGradient>
    <linearGradient id="waveA" x1="212" y1="266" x2="1728" y2="374" gradientUnits="userSpaceOnUse">
      <stop stop-color="#0B6F8D" stop-opacity="0.05"/>
      <stop offset="0.5" stop-color="#0B6F8D" stop-opacity="0.26"/>
      <stop offset="1" stop-color="#0B6F8D" stop-opacity="0.04"/>
    </linearGradient>
    <linearGradient id="waveB" x1="134" y1="650" x2="1806" y2="758" gradientUnits="userSpaceOnUse">
      <stop stop-color="#006D77" stop-opacity="0.03"/>
      <stop offset="0.46" stop-color="#006D77" stop-opacity="0.2"/>
      <stop offset="1" stop-color="#006D77" stop-opacity="0.04"/>
    </linearGradient>
    <linearGradient id="waveC" x1="106" y1="1030" x2="1820" y2="940" gradientUnits="userSpaceOnUse">
      <stop stop-color="#274F76" stop-opacity="0.03"/>
      <stop offset="0.5" stop-color="#274F76" stop-opacity="0.18"/>
      <stop offset="1" stop-color="#274F76" stop-opacity="0.02"/>
    </linearGradient>
  </defs>

  <rect width="1920" height="1280" fill="url(#bg)"/>
  <rect width="1920" height="1280" fill="url(#glowA)"/>
  <rect width="1920" height="1280" fill="url(#glowB)"/>
  <rect width="1920" height="1280" fill="url(#glowC)"/>

  <g opacity="0.58">
    <path d="M-98 342C124 240 352 242 548 302C742 361 900 454 1098 498C1302 543 1548 529 2012 364" stroke="url(#waveA)" stroke-width="2.6"/>
    <path d="M-62 702C174 600 396 598 604 650C810 701 966 792 1172 838C1392 888 1624 868 2010 730" stroke="url(#waveB)" stroke-width="2.6"/>
    <path d="M-80 978C166 876 386 888 602 936C834 987 990 1050 1204 1066C1438 1082 1654 1024 2012 892" stroke="url(#waveC)" stroke-width="2.6"/>
  </g>

  <g opacity="0.45" fill="#0F5D7C">
    <circle cx="218" cy="984" r="1.8"/>
    <circle cx="338" cy="1042" r="1.2"/>
    <circle cx="468" cy="1000" r="1.5"/>
    <circle cx="596" cy="1070" r="1.7"/>
    <circle cx="730" cy="1018" r="1.3"/>
    <circle cx="862" cy="1088" r="1.6"/>
    <circle cx="996" cy="1032" r="1.2"/>
    <circle cx="1128" cy="1096" r="1.6"/>
    <circle cx="1260" cy="1040" r="1.4"/>
    <circle cx="1392" cy="1108" r="1.7"/>
    <circle cx="1528" cy="1056" r="1.2"/>
    <circle cx="1654" cy="1122" r="1.8"/>
  </g>
</svg>
